<?xml version="1.0" encoding="UTF-8"?>
<svg width="80mm" height="80mm" version="1.1" viewBox="0 0 80 80" xmlns="http://www.w3.org/2000/svg" xmlns:cc="http://creativecommons.org/ns#" xmlns:dc="http://purl.org/dc/elements/1.1/" xmlns:rdf="http://www.w3.org/1999/02/22-rdf-syntax-ns#">
<metadata>
<rdf:RDF>
<cc:Work rdf:about="">
<dc:format>image/svg+xml</dc:format>
<dc:type rdf:resource="http://purl.org/dc/dcmitype/StillImage"/>
<dc:title/>
</cc:Work>
</rdf:RDF>
</metadata>
<g transform="translate(0,-217)">
<rect x="2.6458" y="220.27" width="74.083" height="74.083" fill-opacity="0" stroke-width="0"/>
<path d="m7.9375 283.77 26.458-47.625 34.396 44.979z" fill-opacity="0" stroke="#7176fe" stroke-width=".7"/>
<path d="m2.6458 220.27v74.083m10.583-74.083v74.083m10.583-74.083v74.083m10.583-74.083v74.083m10.583-74.083v74.083m10.583-74.083v74.083m10.583-74.083v74.083m10.583-74.083v74.083m-74.083-74.083h74.083m-74.083 10.583h74.083m-74.083 10.583h74.083m-74.083 10.583h74.083m-74.083 10.583h74.083m-74.083 10.583h74.083m-74.083 10.583h74.083m-74.083 10.583h74.083" fill="none" stroke="#000" stroke-width=".26458px"/>
<circle cx="29.104" cy="246.73" r="1.3229" stroke-width="0"/>
<circle cx="39.687" cy="246.73" r="1.3229" stroke-width="0"/>
<circle cx="29.104" cy="257.31" r="1.3229" stroke-width="0"/>
<circle cx="39.687" cy="257.31" r="1.3229" stroke-width="0"/>
<circle cx="50.271" cy="257.31" r="1.3229" stroke-width="0"/>
<circle cx="18.521" cy="267.9" r="1.3229" stroke-width="0"/>
<circle cx="29.104" cy="267.9" r="1.3229" stroke-width="0"/>
<circle cx="39.688" cy="267.9" r="1.3229" stroke-width="0"/>
<circle cx="50.271" cy="267.9" r="1.3229" stroke-width="0"/>
<circle cx="18.521" cy="278.48" r="1.3229" stroke-width="0"/>
<circle cx="29.104" cy="278.48" r="1.3229" stroke-width="0"/>
<circle cx="39.688" cy="278.48" r="1.3229" stroke-width="0"/>
<circle cx="50.271" cy="278.48" r="1.3229" stroke-width="0"/>
<circle cx="60.854" cy="278.48" r="1.3229" stroke-width="0"/>
</g>
</svg>
