<?xml version="1.0" encoding="UTF-8"?>
<svg width="40mm" height="20mm" version="1.1" viewBox="0 0 40 20" xmlns="http://www.w3.org/2000/svg" xmlns:cc="http://creativecommons.org/ns#" xmlns:dc="http://purl.org/dc/elements/1.1/" xmlns:rdf="http://www.w3.org/1999/02/22-rdf-syntax-ns#" xmlns:xlink="http://www.w3.org/1999/xlink">
<defs>
<symbol id="c" overflow="visible">
<path d="m5.7969-1.1719c-0.4375 0.375-0.73438 0.46875-0.92188 0.46875-0.17188 0-0.32812-0.03125-0.4375-0.26562-0.10938-0.21875-0.25-0.73438-0.3125-1.0938-0.03125-0.20312-0.0625-0.375-0.078125-0.5625 0.35938-0.46875 0.70312-1 0.875-1.2656 0.17188-0.25 0.60938-0.96875 0.6875-1.2031-0.078125-0.125-0.125-0.23438-0.1875-0.42188-0.046875-0.015625-0.14062-0.046875-0.1875-0.078125-0.28125 0.98438-0.42188 1.3281-0.875 2.0312-0.046875 0.078125-0.23438 0.375-0.375 0.57812-0.21875-1.4375-0.26562-1.7656-0.34375-2.1875-0.10938-0.54688-0.4375-0.59375-0.6875-0.59375-0.26562 0.015625-0.65625 0.21875-1.0469 0.59375-0.29688 0.26562-0.51562 0.5625-0.73438 0.9375-0.53125 1.0625-0.90625 2.4844-0.90625 3.4531 0 0.39062 0.17188 0.90625 0.45312 0.90625 0.46875 0 0.84375-0.23438 1.2188-0.5 0.5-0.4375 1.0312-0.96875 1.4062-1.3906 0.14062 1.2344 0.5 1.8906 0.95312 1.8906 0.25 0 0.625-0.20312 1.0156-0.54688l0.59375-0.51562zm-2.5-0.96875c-0.34375 0.40625-0.6875 0.76562-0.98438 1.0156-0.375 0.3125-0.70312 0.42188-0.92188 0.42188-0.15625 0-0.21875-0.17188-0.21875-0.48438 0-0.76562 0.1875-2.0469 0.57812-3.0469 0.15625-0.39062 0.46875-0.73438 0.71875-0.73438 0.35938 0 0.48438 0.21875 0.5625 0.73438z"/>
</symbol>
<symbol id="b" overflow="visible">
<path d="m0.14062 3.3125c0.29688-0.09375 0.39062-0.15625 0.73438-0.20312 0.09375-1.0625 0.17188-2.4219 0.375-3.3438 0.48438 0.26562 0.92188 0.35938 1.5312 0.35938 1.8281 0 3.3125-1.3125 3.3125-2.9375 0-0.625-0.20312-0.96875-0.625-1.2812-0.28125-0.20312-0.54688-0.3125-1.125-0.45312v-0.0625c0.046875-0.15625 0.125-0.29688 0.3125-0.54688 0.046875-0.0625 0.09375-0.125 0.15625-0.17188 0.76562-0.9375 1-1.3125 1-1.9688s-0.5-1.2031-1.1094-1.2031c-0.48438 0-1.3438 0.39062-2.0312 0.90625-0.70312 0.51562-0.85938 0.9375-1.0156 1.6406l-0.32812 1.5c-0.40625 1.8906-0.8125 4.4062-1.3594 7.6719zm2.3125-7.4688 0.0625 0.14062c0.4375-0.15625 0.64062-0.1875 0.92188-0.1875 1.0469 0 1.625 0.46875 1.625 1.4844 0 0.71875-0.26562 1.4375-0.76562 1.9375-0.32812 0.34375-0.75 0.5-1.25 0.5-0.90625 0-1.4531-0.48438-1.4531-1.2656 0-0.125 0-0.25 0.03125-0.4375l0.5625-2.5469c0.26562-1.2031 0.46875-2.125 0.5625-2.3906 0.21875-0.625 0.73438-0.98438 1.3125-0.98438 0.59375 0 1 0.42188 1 1.0312 0 0.53125-0.17188 0.84375-0.84375 1.7656-0.32812 0.29688-0.53125 0.45312-1.0312 0.45312h-0.26562c-0.078125-0.015625-0.14062-0.015625-0.25-0.015625z"/>
</symbol>
<symbol id="a" overflow="visible">
<path d="m5 0.03125v-0.35938l-0.625-0.03125c-0.65625-0.03125-0.78125-0.17188-0.78125-0.78125v-7.0938l-0.15625-0.0625c-0.78125 0.40625-1.625 0.76562-2.7188 1.1562l0.078125 0.5h0.125l1.5469-0.6875 0.03125-0.015625c0.0625 0 0.09375 0.10938 0.09375 0.40625v5.7969c0 0.60938-0.125 0.75-0.78125 0.78125l-0.67188 0.03125v0.35938c0.67188-0.015625 1.3281-0.03125 1.9844-0.03125 0.60938 0 1.25 0.015625 1.875 0.03125z"/>
</symbol>
</defs>
<metadata>
<rdf:RDF>
<cc:Work rdf:about="">
<dc:format>image/svg+xml</dc:format>
<dc:type rdf:resource="http://purl.org/dc/dcmitype/StillImage"/>
<dc:title/>
</cc:Work>
</rdf:RDF>
</metadata>
<g transform="translate(0,-277)">
<path d="m21.057 295.79-0.75632-18.359-19.038 10.981z" fill="none" stroke="#000" stroke-width=".15319px"/>
<path d="m20.301 277.43 17.773 9.8547-17.017 8.5042" fill="none" stroke="#000" stroke-width=".15319px"/>
<path d="m4.2845 286.65s2.3781 1.3842-0.028654 2.8468" fill="none" stroke="#000" stroke-width=".15319px"/>
<path d="m35.544 285.84s-1.318 1.776 0.28652 2.5073" fill="none" stroke="#000" stroke-width=".15319px"/>
<g transform="matrix(.25801 0 0 .25801 -71.962 221.1)">
<use x="302.84399" y="261.23401" width="100%" height="100%" xlink:href="#c"/>
</g>
<g transform="matrix(.24369 0 0 .24369 -41.295 215.43)">
<use x="302.91" y="296.60101" width="100%" height="100%" xlink:href="#b"/>
</g>
<g transform="matrix(.35278 0 0 .35278 22.128 128.92)">
<use x="303.01099" y="724.68701" width="100%" height="100%" xlink:href="#a"/>
</g>
</g>
</svg>
