<?xml version="1.0" encoding="UTF-8"?>
<svg width="130mm" height="40mm" version="1.1" viewBox="0 0 130 40" xmlns="http://www.w3.org/2000/svg" xmlns:cc="http://creativecommons.org/ns#" xmlns:dc="http://purl.org/dc/elements/1.1/" xmlns:rdf="http://www.w3.org/1999/02/22-rdf-syntax-ns#" xmlns:xlink="http://www.w3.org/1999/xlink">
<defs>
<symbol id="a" overflow="visible">
<path d="m2.5312-5.625-0.82812 0.26562c-0.40625 0.10938-0.60938 0.14062-1.2188 0.23438l-0.14062 0.015625v0.42188l0.54688 0.03125c0.26562 0.03125 0.29688 0.14062 0.29688 0.84375v5.6719c0 0.64062-0.046875 0.73438-0.42188 0.76562l-0.42188 0.015625v0.4375l1.5469-0.03125c0.15625 0 0.17188 0 1.7344 0.03125v-0.4375l-0.54688-0.015625c-0.35938-0.015625-0.42188-0.125-0.42188-0.76562v-1.8594c0.57812 0.17188 0.78125 0.20312 1.0625 0.20312 0.40625 0 0.82812-0.21875 1.6406-0.85938 0.0625-0.046875 0.14062-0.10938 0.20312-0.15625 0.78125-0.59375 1.2188-1.5312 1.2188-2.6094 0-1.2656-0.92188-2.2031-2.1719-2.2031-0.46875 0-0.8125 0.125-1.2344 0.46875l-0.71875 0.57812v-0.98438zm0.125 1.6719c0.26562-0.39062 0.65625-0.59375 1.1406-0.59375 0.92188 0 1.4688 0.70312 1.4688 1.9062 0 1.2344-0.53125 2.0312-1.4062 2.0312-0.5 0-0.89062-0.20312-1.2031-0.65625z"/>
</symbol>
<symbol id="d" overflow="visible">
<path d="m0.3125-3.4844 0.0625 0.1875 0.28125-0.1875c0.32812-0.20312 0.35938-0.23438 0.42188-0.23438 0.09375 0 0.15625 0.09375 0.15625 0.21875 0 0.0625-0.03125 0.26562-0.0625 0.39062l-0.59375 2.1562c-0.078125 0.26562-0.125 0.51562-0.125 0.6875 0 0.21875 0.10938 0.34375 0.26562 0.34375 0.23438 0 0.5625-0.1875 1.4375-0.84375l-0.078125-0.15625-0.23438 0.15625c-0.26562 0.17188-0.46875 0.26562-0.54688 0.26562-0.0625 0-0.125-0.09375-0.125-0.1875 0-0.078125 0.015625-0.17188 0.0625-0.35938l0.6875-2.7188c0.046875-0.15625 0.0625-0.25 0.0625-0.32812 0-0.15625-0.078125-0.23438-0.21875-0.23438-0.20312 0-0.53125 0.1875-1.2031 0.67188zm1.7344-2.9062c-0.26562 0-0.51562 0.29688-0.51562 0.60938 0 0.21875 0.125 0.35938 0.34375 0.35938 0.28125 0 0.5-0.25 0.5-0.59375 0-0.21875-0.14062-0.375-0.32812-0.375z"/>
</symbol>
<symbol id="c" overflow="visible">
<path d="m-0.625 2.4062c0.09375 0.046875 0.20312 0.0625 0.34375 0.0625 0.35938 0 0.71875-0.375 1.0312-1.1094 0.1875-0.40625 0.3125-0.84375 0.5625-1.9844l0.67188-3.1406c0.046875-0.15625 0.0625-0.28125 0.0625-0.32812 0-0.15625-0.078125-0.23438-0.21875-0.23438-0.20312 0-0.53125 0.1875-1.2031 0.67188l-0.25 0.17188 0.0625 0.1875 0.28125-0.1875c0.32812-0.20312 0.35938-0.23438 0.42188-0.23438 0.09375 0 0.15625 0.09375 0.15625 0.21875 0 0.03125-0.015625 0.14062-0.046875 0.25 0 0.046875-0.015625 0.078125-0.015625 0.10938l-0.89062 4.4375c-0.10938 0.46875-0.26562 0.78125-0.42188 0.78125-0.125 0-0.29688-0.0625-0.48438-0.17188zm2.6719-8.7969c-0.25 0-0.51562 0.29688-0.51562 0.60938 0 0.21875 0.14062 0.35938 0.35938 0.35938 0.26562 0 0.48438-0.25 0.48438-0.59375 0-0.21875-0.125-0.375-0.32812-0.375z"/>
</symbol>
<symbol id="b" overflow="visible">
<path d="m2.3594-4.4375c0.046875-0.10938 0.09375-0.20312 0.09375-0.29688 0-0.26562-0.25-0.48438-0.53125-0.48438-0.26562 0-0.4375 0.17188-0.5 0.42188l-1.1094 4.0781c0 0.015625-0.046875 0.125-0.046875 0.125 0 0.10938 0.25 0.17188 0.32812 0.17188 0.046875 0 0.0625-0.03125 0.10938-0.14062z"/>
</symbol>
</defs>
<metadata>
<rdf:RDF>
<cc:Work rdf:about="">
<dc:format>image/svg+xml</dc:format>
<dc:type rdf:resource="http://purl.org/dc/dcmitype/StillImage"/>
<dc:title/>
</cc:Work>
</rdf:RDF>
</metadata>
<g transform="translate(0,-257)">
<g transform="matrix(2.0969 0 0 2.0969 -229.45 -256.1)">
<g transform="matrix(.26458 0 0 .26458 300.04 331.97)">
<path d="m5.4688-4.25c0.65625-0.28125 0.95312-0.45312 1.2656-0.8125 0.34375-0.375 0.51562-0.8125 0.51562-1.3281 0-1.1562-0.76562-1.75-2.2812-1.75-0.125 0-0.42188 0-0.82812 0.015625-0.29688 0.015625-1.2812 0.015625-1.5469 0.015625-0.32812 0-0.32812 0-2.125-0.03125v0.4375l0.4375 0.046875c0.54688 0.046875 0.57812 0.10938 0.57812 1.1719v4.875c0 1.0625-0.015625 1.0781-0.57812 1.125l-0.4375 0.046875v0.46875c1.4375-0.03125 1.4375-0.03125 1.8438-0.03125s0.42188 0 1.875 0.03125v-0.46875l-0.45312-0.046875c-0.5625-0.046875-0.5625-0.0625-0.5625-1.125v-5.8281c0.15625-0.0625 0.39062-0.10938 0.70312-0.10938 1.0625 0 1.6719 0.5625 1.6719 1.5312 0 0.64062-0.29688 1.1719-0.79688 1.4688-0.29688 0.17188-0.59375 0.23438-1.1094 0.21875l-0.09375 0.21875 2.6875 4.1406 1.0625-0.03125c0.60938 0.015625 0.71875 0.015625 1.1719 0.03125v-0.46875c-0.4375-0.09375-0.5625-0.15625-0.84375-0.54688z"/>
</g>
<g transform="matrix(.26458 0 0 .26458 308.93 327.03)">
<path d="m2.3594-4.4375c0.046875-0.10938 0.09375-0.20312 0.09375-0.29688 0-0.26562-0.25-0.48438-0.53125-0.48438-0.26562 0-0.4375 0.17188-0.5 0.42188l-1.1094 4.0781c0 0.015625-0.046875 0.125-0.046875 0.125 0 0.10938 0.25 0.17188 0.32812 0.17188 0.046875 0 0.0625-0.03125 0.10938-0.14062z"/>
</g>
<g transform="matrix(.26458 0 0 .26458 308.87 335.32)">
<path d="m0.3125-3.4844 0.0625 0.1875 0.28125-0.1875c0.32812-0.20312 0.35938-0.23438 0.42188-0.23438 0.09375 0 0.15625 0.09375 0.15625 0.21875 0 0.0625-0.03125 0.26562-0.0625 0.39062l-0.59375 2.1562c-0.078125 0.26562-0.125 0.51562-0.125 0.6875 0 0.21875 0.10938 0.34375 0.26562 0.34375 0.23438 0 0.5625-0.1875 1.4375-0.84375l-0.078125-0.15625-0.23438 0.15625c-0.26562 0.17188-0.46875 0.26562-0.54688 0.26562-0.0625 0-0.125-0.09375-0.125-0.1875 0-0.078125 0.015625-0.17188 0.0625-0.35938l0.6875-2.7188c0.046875-0.15625 0.0625-0.25 0.0625-0.32812 0-0.15625-0.078125-0.23438-0.21875-0.23438-0.20312 0-0.53125 0.1875-1.2031 0.67188zm1.7344-2.9062c-0.26562 0-0.51562 0.29688-0.51562 0.60938 0 0.21875 0.125 0.35938 0.34375 0.35938 0.28125 0 0.5-0.25 0.5-0.59375 0-0.21875-0.14062-0.375-0.32812-0.375z"/>
</g>
</g>
<path d="m15.875 270.54 29.104 15.875" fill="none" stroke="#000" stroke-width=".265"/>
<g transform="translate(-50.968 122.22)">
<g transform="matrix(.35278 0 0 .35278 -43.138 54.317)">
<use x="300.73999" y="261.23401" width="100%" height="100%" xlink:href="#a"/>
</g>
<g transform="matrix(.35278 0 0 .35278 -43.138 54.317)">
<use x="308.24399" y="263.50101" width="100%" height="100%" xlink:href="#d"/>
</g>
</g>
<g transform="translate(-7.9375 58.208)">
<g transform="translate(-8.6863 69.624)">
<use transform="matrix(.35278 0 0 .35278 -43.138 54.317)" x="300.58301" y="296.60101" width="100%" height="100%" fill="#000000" xlink:href="#a"/>
<g transform="matrix(.35278 0 0 .35278 -43.138 54.317)">
<use x="308.46301" y="298.86801" width="100%" height="100%" xlink:href="#c"/>
</g>
</g>
</g>
<g transform="translate(21.502 97.363)">
<g transform="matrix(.35278 0 0 .35278 -43.138 54.317)">
<use x="300.70001" y="331.96899" width="100%" height="100%" xlink:href="#a"/>
</g>
<g transform="matrix(.35278 0 0 .35278 -43.138 54.317)">
<use x="308.26599" y="327.03101" width="100%" height="100%" xlink:href="#b"/>
</g>
<g transform="matrix(.35278 0 0 .35278 -43.138 54.317)">
<use x="308.203" y="335.32401" width="100%" height="100%" xlink:href="#d"/>
</g>
</g>
<g transform="translate(55.445 104.31)">
<g transform="matrix(.35278 0 0 .35278 -43.138 54.317)">
<use x="300.58301" y="367.336" width="100%" height="100%" xlink:href="#a"/>
</g>
<g transform="matrix(.35278 0 0 .35278 -43.138 54.317)">
<use x="308.14899" y="362.39899" width="100%" height="100%" xlink:href="#b"/>
</g>
<g transform="matrix(.35278 0 0 .35278 -43.138 54.317)">
<use x="308.46301" y="370.69101" width="100%" height="100%" xlink:href="#c"/>
</g>
</g>
<path d="m88.635 270.54 29.104 15.875" fill="none" stroke="#000" stroke-width=".265"/>
</g>
</svg>
